<?xml version="1.0" encoding="UTF-8" standalone="no"?>
<!-- Created with Inkscape (http://www.inkscape.org/) -->
<svg xmlns:inkscape="http://www.inkscape.org/namespaces/inkscape" xmlns:sodipodi="http://sodipodi.sourceforge.net/DTD/sodipodi-0.dtd" xmlns="http://www.w3.org/2000/svg" xmlns:svg="http://www.w3.org/2000/svg" version="1.1" id="svg2" xml:space="preserve" width="593.33331" height="133.33333" viewBox="0 0 593.33331 133.33333" sodipodi:docname="Turkcell_Global_Bilgi_Logo_Web.ai">
  <defs id="defs6">
    <clipPath id="clipPath16">
      <path d="M 0,100 H 445 V 0 H 0 Z" id="path14"></path>
    </clipPath>
  </defs>
  <g id="g8" inkscape:groupmode="layer" inkscape:label="Turkcell_Global_Bilgi_Logo_Web" transform="matrix(1.3333333,0,0,-1.3333333,0,133.33333)">
    <g id="g10">
      <g id="g12" clip-path="url(#clipPath16)">
        <path d="m 432.238,68.492 h 11.278 v -35.55 h -11.278 z m 11.278,5.225 h -11.278 v 8.594 h 11.278 z M 413.537,47.725 c -0.688,-1.512 -1.95,-2.27 -3.783,-2.27 -1.834,0 -3.07,0.758 -3.712,2.27 -0.46,1.008 -0.688,2.703 -0.688,5.088 0,2.383 0.228,4.081 0.688,5.089 0.642,1.512 1.878,2.27 3.712,2.27 1.833,0 3.095,-0.758 3.783,-2.27 0.411,-1.008 0.618,-2.706 0.618,-5.089 0,-2.385 -0.207,-4.08 -0.618,-5.088 m 0.962,19.184 c -2.292,2.292 -5.043,3.439 -8.25,3.439 -3.624,0 -6.534,-1.102 -8.734,-3.302 -1.558,-1.558 -2.544,-3.506 -2.958,-5.843 -0.32,-1.606 -0.481,-4.4 -0.481,-8.39 0,-3.989 0.161,-6.786 0.481,-8.39 0.414,-2.337 1.4,-4.287 2.958,-5.843 2.2,-2.202 5.088,-3.301 8.664,-3.301 3.253,0 5.913,1.031 7.976,3.095 V 35.69 c 0,-3.758 -1.993,-5.636 -5.983,-5.636 -2.657,0 -4.768,0.779 -6.327,2.337 l -7.011,-7.014 c 3.207,-3.208 7.839,-4.815 13.889,-4.815 4.997,0 9.032,1.411 12.102,4.232 3.071,2.818 4.608,6.428 4.608,10.829 v 34.311 h -10.934 z m -27.642,-24.48 h 3.92 v -9.488 h -5.983 c -3.804,0 -6.738,1.192 -8.801,3.575 -1.789,2.018 -2.681,4.471 -2.681,7.358 v 38.027 h 11.275 V 44.699 c 0,-1.512 0.758,-2.27 2.27,-2.27 m -31.288,26.063 h 11.278 v -35.55 h -11.278 z m 0,13.819 h 11.278 V 73.717 H 355.569 Z M 338.038,45.044 c -0.688,-1.561 -1.996,-2.34 -3.92,-2.34 -1.926,0 -3.232,0.779 -3.92,2.34 -0.505,1.19 -0.757,3.323 -0.757,6.394 0,3.071 0.252,5.204 0.757,6.396 0.688,1.556 1.994,2.338 3.92,2.338 1.924,0 3.232,-0.782 3.92,-2.338 0.502,-1.192 0.754,-3.325 0.754,-6.396 0,-3.071 -0.252,-5.204 -0.754,-6.394 m 8.594,21.935 c -2.246,2.246 -5.226,3.369 -8.938,3.369 -3.439,0 -6.19,-1.032 -8.253,-3.095 V 81.9 H 318.163 V 32.942 h 10.934 v 3.025 c 2.292,-2.295 5.134,-3.439 8.527,-3.439 3.758,0 6.762,1.123 9.008,3.369 1.603,1.604 2.635,3.965 3.094,7.084 0.229,1.604 0.344,4.422 0.344,8.457 0,4.032 -0.115,6.853 -0.344,8.457 -0.459,3.119 -1.491,5.478 -3.094,7.084 m -50.539,-24.55 h 3.919 v -9.488 h -5.983 c -3.804,0 -6.737,1.192 -8.801,3.575 -1.789,2.018 -2.681,4.471 -2.681,7.358 v 38.027 h 11.276 V 44.699 c 0,-1.512 0.757,-2.27 2.27,-2.27 m -30.668,4.401 c 0,-1.787 -0.368,-3.025 -1.099,-3.713 -0.965,-0.916 -2.456,-1.376 -4.471,-1.376 -2.476,0 -3.712,1.032 -3.712,3.095 0,1.972 1.19,2.958 3.576,2.958 h 5.706 z m -5.019,23.517 c -3.164,0 -5.733,-0.355 -7.702,-1.064 -1.972,-0.712 -3.898,-2.007 -5.776,-3.887 l 7.015,-7.012 c 1.649,1.649 3.618,2.474 5.912,2.474 3.713,0 5.57,-1.536 5.57,-4.607 v -0.962 h -7.496 c -4.126,0 -7.312,-1.101 -9.558,-3.301 -2.018,-1.924 -3.025,-4.401 -3.025,-7.426 0,-3.621 1.088,-6.523 3.267,-8.699 2.176,-2.178 5.123,-3.266 8.835,-3.266 3.254,0 6.005,1.123 8.253,3.368 v -3.024 h 11.001 v 23.998 c 0,8.94 -5.432,13.408 -16.296,13.408 M 230.22,45.044 c -0.688,-1.561 -1.996,-2.34 -3.92,-2.34 -1.926,0 -3.232,0.779 -3.919,2.34 -0.505,1.19 -0.758,3.323 -0.758,6.394 0,3.071 0.253,5.204 0.758,6.396 0.687,1.556 1.993,2.338 3.919,2.338 1.924,0 3.232,-0.782 3.92,-2.338 0.502,-1.192 0.755,-3.325 0.755,-6.396 0,-3.071 -0.253,-5.204 -0.755,-6.394 m 8.594,21.935 c -2.246,2.246 -5.225,3.369 -8.938,3.369 -3.439,0 -6.19,-1.032 -8.253,-3.095 V 81.9 H 210.346 V 32.942 h 10.933 v 3.025 c 2.292,-2.295 5.134,-3.439 8.527,-3.439 3.759,0 6.762,1.123 9.008,3.369 1.604,1.604 2.635,3.965 3.095,7.084 0.228,1.604 0.344,4.422 0.344,8.457 0,4.032 -0.116,6.853 -0.344,8.457 -0.46,3.119 -1.491,5.478 -3.095,7.084 m -46,-21.935 c -0.645,-1.561 -1.951,-2.34 -3.92,-2.34 -1.972,0 -3.28,0.779 -3.919,2.34 -0.506,1.19 -0.758,3.323 -0.758,6.394 0,3.071 0.252,5.204 0.758,6.396 0.639,1.556 1.947,2.338 3.919,2.338 1.969,0 3.275,-0.782 3.92,-2.338 0.502,-1.192 0.754,-3.325 0.754,-6.396 0,-3.071 -0.252,-5.204 -0.754,-6.394 m 7.976,20.56 c -2.934,3.162 -6.902,4.744 -11.896,4.744 -4.999,0 -8.965,-1.582 -11.898,-4.744 -1.558,-1.653 -2.625,-3.506 -3.197,-5.569 -0.572,-2.064 -0.86,-4.93 -0.86,-8.597 0,-3.667 0.288,-6.534 0.86,-8.594 0.572,-2.063 1.639,-3.92 3.197,-5.572 2.933,-3.162 6.899,-4.744 11.898,-4.744 4.994,0 8.962,1.582 11.896,4.744 1.558,1.652 2.622,3.509 3.197,5.572 0.572,2.06 0.859,4.927 0.859,8.594 0,3.667 -0.287,6.533 -0.859,8.597 -0.575,2.063 -1.639,3.916 -3.197,5.569 M 165.721,42.429 h 3.919 v -9.488 h -5.983 c -3.804,0 -6.737,1.192 -8.801,3.575 -1.789,2.018 -2.681,4.471 -2.681,7.358 v 38.027 h 11.276 V 44.699 c 0,-1.512 0.757,-2.27 2.27,-2.27 m -31.905,5.296 c -0.688,-1.512 -1.951,-2.27 -3.783,-2.27 -1.835,0 -3.07,0.758 -3.712,2.27 -0.46,1.008 -0.688,2.703 -0.688,5.088 0,2.383 0.228,4.081 0.688,5.089 0.642,1.512 1.877,2.27 3.712,2.27 1.832,0 3.095,-0.758 3.783,-2.27 0.411,-1.008 0.618,-2.706 0.618,-5.089 0,-2.385 -0.207,-4.08 -0.618,-5.088 m 0.962,19.184 c -2.292,2.292 -5.043,3.439 -8.251,3.439 -3.624,0 -6.533,-1.102 -8.733,-3.302 -1.558,-1.558 -2.544,-3.506 -2.958,-5.843 -0.32,-1.606 -0.481,-4.4 -0.481,-8.39 0,-3.989 0.161,-6.786 0.481,-8.39 0.414,-2.337 1.4,-4.287 2.958,-5.843 2.2,-2.202 5.088,-3.301 8.664,-3.301 3.253,0 5.913,1.031 7.976,3.095 V 35.69 c 0,-3.758 -1.994,-5.636 -5.983,-5.636 -2.657,0 -4.768,0.779 -6.327,2.337 l -7.011,-7.014 c 3.207,-3.208 7.839,-4.815 13.889,-4.815 4.997,0 9.032,1.411 12.102,4.232 3.071,2.818 4.608,6.428 4.608,10.829 v 34.311 h -10.934 z" style="fill:#0d4ba0;fill-opacity:1;fill-rule:nonzero;stroke:none" id="path18"></path>
        <g id="g20" transform="translate(100.9482,43.0325)">
          <path d="m 0,0 c -1.717,-12.011 -7.24,-22.126 -16.403,-30.242 -7.284,-6.447 -15.81,-10.415 -25.455,-12.032 -1.399,-0.237 -2.815,-0.384 -4.226,-0.556 -0.249,-0.024 -0.542,-0.054 -0.87,-0.081 -5.59,-0.406 -9.472,0.333 -9.472,0.333 -4.954,0.954 -9.239,3.576 -7.262,10.163 0.132,0.403 0.272,0.801 0.411,1.201 1.848,5.131 4.094,9.373 6.206,12.688 0.027,0.043 0.054,0.089 0.083,0.132 0.11,0.172 0.22,0.338 0.328,0.505 2.05,3.062 4.414,5.956 7.084,8.685 1.217,1.217 4.285,4.164 8.151,6.993 2.076,1.48 4.244,2.829 6.509,4.046 0.717,0.33 2.711,1.015 5.303,-0.051 2.313,-1.725 5.024,-2.37 8.017,-1.999 6.001,0.742 10.197,6.112 9.534,12.062 -0.548,4.908 -4.323,8.629 -8.927,9.505 -0.443,0.129 -0.962,0.199 -1.58,0.188 h -0.008 c -0.948,0.04 -1.921,-0.035 -2.896,-0.247 -0.903,-0.199 -1.794,-0.521 -2.646,-0.951 -3.632,-1.717 -5.233,-4.908 -5.717,-7.092 v -0.003 c -0.674,-3.044 -3.186,-3.686 -3.186,-3.686 -2.141,-0.513 -4.726,-1.51 -7.157,-2.576 -2.732,-1.142 -5.389,-2.448 -7.971,-3.906 -0.112,-0.06 -0.177,-0.094 -0.177,-0.094 L -52.33,2.979 c -0.942,-0.537 -1.875,-1.093 -2.796,-1.671 l -0.008,-0.002 c 0,0 -15.071,-9.04 -22.419,-21.567 -0.002,-0.006 -0.005,-0.014 -0.011,-0.019 -0.4,-0.588 -0.789,-1.182 -1.173,-1.781 -7.009,-9.459 -15.372,-0.406 -10.727,15.275 0.042,0.145 0.086,0.287 0.129,0.43 0.045,0.145 0.091,0.29 0.139,0.438 0.032,0.104 0.067,0.209 0.102,0.314 0.758,2.297 1.604,4.438 2.499,6.426 0.572,1.257 1.187,2.501 1.851,3.729 0.714,1.33 1.475,2.619 2.272,3.879 1.51,2.227 4.726,6.73 8.557,10.698 1.458,1.458 2.995,2.85 4.612,4.18 0.132,0.094 0.315,0.209 0.551,0.311 0,0 0.008,0.003 0.014,0.008 0.424,0.18 1.007,0.315 1.722,0.199 0.319,-0.075 0.652,-0.228 0.961,-0.51 0.39,-0.352 1.448,-1.032 2.751,-1.634 0.75,-0.416 1.623,-0.73 2.574,-0.921 0.843,-0.204 1.684,-0.304 2.445,-0.207 0,0 0,0.003 0.005,0.003 1.209,0.032 2.469,0.26 3.71,0.714 2.069,0.704 3.807,1.956 5.075,3.571 0.032,0.04 0.061,0.078 0.091,0.115 0.102,0.129 0.196,0.255 0.277,0.379 1.518,2.184 2.227,4.943 1.824,7.869 -0.508,3.683 -3.006,6.737 -6.262,8.263 -1.854,0.868 -3.952,1.239 -6.066,0.951 -6.757,-0.395 -9.142,-6.431 -9.489,-8.626 -0.003,-0.027 -0.011,-0.048 -0.013,-0.075 -0.011,-0.049 -0.022,-0.097 -0.03,-0.148 -0.513,-2.636 -2.439,-3.503 -2.439,-3.503 -2.069,-0.758 -4.288,-1.883 -6.41,-3.106 -1.856,-1.026 -3.643,-2.13 -5.362,-3.312 l -0.003,0.005 c 0,0 -6.754,-4.381 -10.996,-9.641 -0.056,-0.068 -0.11,-0.127 -0.166,-0.191 -0.142,-0.161 -0.29,-0.32 -0.433,-0.481 -3.626,-3.756 -5.934,0.728 -3.465,8.844 0.078,0.249 0.153,0.499 0.236,0.746 0.022,0.065 0.04,0.13 0.062,0.194 2.41,7.02 6.356,13.306 11.823,18.856 4.376,4.444 9.462,7.939 15.208,10.472 10.399,4.583 21.183,5.741 32.273,3.178 6.756,-1.561 12.782,-4.183 18.047,-7.86 5.263,-3.678 9.768,-8.409 13.486,-14.188 C -0.693,23.308 1.717,12.03 0,0" style="fill:#ffc40c;fill-opacity:1;fill-rule:nonzero;stroke:none" id="path22"></path>
        </g>
      </g>
    </g>
  </g>
</svg>
